<svg xmlns="http://www.w3.org/2000/svg" viewBox="0 0 190.43 109.38"><title>Balenciaga logo</title><path d="M423.86,556.42c-.27.09-.78,0-1,.15a7.39,7.39,0,0,0-.19,2.66c0,1.8-.33,4.05.08,5.69a7.4,7.4,0,0,0,2.51.49c3.54.52,5.71-2.75,4.68-6.14-.72-2.35-3-2.87-6.1-2.85Zm171.93-6.22a46.56,46.56,0,0,0-2.85,7.3h5.69v0l-2.85-7.26Zm-41.49,0a46.63,46.63,0,0,0-2.85,7.3h5.69v0l-2.85-7.26Zm-111.61,0-1,2.43-1.8,4.9h5.69a29.23,29.23,0,0,0-1.91-4.94l-.94-2.4Zm-17.93-2.92-1.83.41-.11,5.39a12,12,0,0,0,.07,2.25,5.65,5.65,0,0,0,2.66-.11c2.39-.54,3.5-1.27,3.89-3.86A3.88,3.88,0,0,0,429,549c-.74-1.22-2.19-1.79-4.19-1.76Zm68.29-.67,4.94,0,3.07,3.74L510,560.69v-.07l.11-3.22c0-2.61.47-7.16-.71-8.69a3.08,3.08,0,0,0-1.72-1c-.41-.09-1.23.07-1.39-.26-.43-.94,1.26-.78,1.83-.79l4.53-.07a9.77,9.77,0,0,1,2,.07l.15.19,0,.41a.34.34,0,0,1-.22.22c-1.24.56-2.14.08-2.81,1.39s-.41,3.5-.41,5.17l-.11,8.31c-.2,1.24.14,2.62-.11,3.74l-.22.22c-1,0-3.07-3-3.67-3.71-2.4-3-5.18-5.8-7.6-8.8a26.71,26.71,0,0,0-1.87-2.32v3.29a44.17,44.17,0,0,0,.34,7,6.15,6.15,0,0,0,.49,2.36,3,3,0,0,0,1.68,1.09c.67.14,1.11,0,1.5.37a.72.72,0,0,1-.22.64l-6,0a5.38,5.38,0,0,1-2.43-.22c0-1.1.92-.65,1.76-.86a1.87,1.87,0,0,0,1.42-1.12c.46-1.18.46-4.82.22-6.4l-.07-4c-.19-1.26,0-2.46-.37-3.41a5.26,5.26,0,0,0-2.17-2.58,11.53,11.53,0,0,1-1.27-.45c0-.53.08-.58.41-.75Zm-13.14,8.91c1.61,0,3.5.15,4.27-.79.56-.68.75-1.69,1.27-2.43a.94.94,0,0,1,.67.15,11.77,11.77,0,0,1-.11,3.37q0,2.12,0,4.23l-.22.22-.37,0c-.5-.26-.51-1.46-.79-1.95-.62-1.07-1.45-1.29-2.92-1.54-.35-.06-1.5-.3-1.8,0l0,3.48c.2,1.33-.17,2.76.26,3.82.76,1.86,4.55,1.8,6.7,1.16a6.41,6.41,0,0,0,3.48-2.25c.39-.55.59-1.46,1.12-1.87l.45,0,.15.08a18.82,18.82,0,0,1-1.09,5.43l-9.44-.11-3.18-.11c-1.26-.19-3.76.33-4.61-.22v-.49l.26-.22c.94-.24,1.84-.06,2.32-.71.61-.82.56-2.56.56-3.93v-4.46a15.1,15.1,0,0,0,0-4.08c-.19-1.18.23-2.8-.26-3.74-.41-.78-1.66-.79-2.4-1.24a.78.78,0,0,1,.07-.71,10.71,10.71,0,0,1,3.52.07l7.94.07c.94,0,3.83-.21,4.46.08.19.85,1.14,4.35.71,5.09l-.07,0-.34,0c-.35-.18-.46-.59-.67-.9a9.52,9.52,0,0,0-1.8-2.06c-1.94-1.5-4.82-1.32-7.9-1a61.23,61.23,0,0,0-.22,7.6Zm55.41-9.14c1.92,0,3.7,0,5.58,0a5.09,5.09,0,0,1,2.51.26.76.76,0,0,1-.19.64c-.88.2-1.76.31-2.17,1-.53.86-.23,2.28-.41,3.48a26,26,0,0,0,0,5.73l.11,3.52c.18,1.15-.09,2.43.3,3.37.49,1.18,1.66.63,2.4,1.35l0,.45a.34.34,0,0,1-.22.22h-5.69c-.82,0-1.64.14-2.13-.22l0-.49a.34.34,0,0,1,.22-.22c.67-.25,1.35,0,1.68-.6.53-.91.11-2.47.3-3.71v-5.88q0-1.25,0-2.51c-.25-1.6.16-3.3-.41-4.53-.34-.72-1.41-.68-2-1.12l0-.49.19-.22Zm-79.08,0,5.17.19h4l.19.22,0,.45a.34.34,0,0,1-.22.22c-1.24.31-2.19.18-2.77,1.09s-.16,2.1-.34,3.29q0,2.34-.07,4.68v4c.2,1.31-.25,2.86.3,3.78s2.25,1.07,3.78.82a7.32,7.32,0,0,0,5.17-3.48c.4-.56.62-1.49,1.16-1.91a.86.86,0,0,1,.64.15,24.33,24.33,0,0,1-1,6.51l-11.91-.07c-1.41,0-3.66.53-4.64-.15,0-1,1-.64,1.72-.86A2.09,2.09,0,0,0,458.8,564c.41-1.05.1-2.41.3-3.74q0-3.74,0-7.49c0-1.53,0-3.23-.56-4.19s-1.76-.78-2.7-1.46l0-.49c.09-.18.17-.17.34-.26Zm-31.11-.11a15.53,15.53,0,0,1,3.41.15c2.29.53,4.64,2.09,4,5.32a4.55,4.55,0,0,1-.49,1.42,5.56,5.56,0,0,1-2.4,2.06l-1,.45c2.55.43,5.77,3,4.72,6.55a6.76,6.76,0,0,1-1.35,2.32c-2,2.45-5.52,1.83-9.55,1.83-1.39,0-5,.34-5.69-.19a.82.82,0,0,1,.19-.67c.71-.07,1.75-.24,2.1-.71.73-1,.36-2.67.6-4.19q0-2,0-3.93c.32-2.06.23-7.11-.45-8.54-.3-.63-1.44-.58-2-1,0-1.09,1.1-.75,2.1-.75a28.61,28.61,0,0,0,4.08-.07l1.68-.07Zm171.15-.11a2.9,2.9,0,0,1,1,.07l1.46,3.29,2.81,7.41c.71,1.83,1.3,3.68,2,5.43a9.7,9.7,0,0,0,1,2.25c.65.84,1.88.59,2.55,1.24a.83.83,0,0,1-.19.67c-1.8,0-3.66-.15-5.62-.15a16.58,16.58,0,0,1-3,0l-.15-.19,0-.41.08-.15c.71-.17,1.86-.17,2.25-.67s.1-1.36-.08-1.87l-1.46-4.31-6.59.07c-.24,1.23-2.14,4.59-1.24,5.8.57.77,1.93.52,2.55,1.12a.77.77,0,0,1-.22.67l-4.34-.11a13.8,13.8,0,0,1-2.55,0l-.15-.19a.76.76,0,0,1,.19-.64c2.88-.67,3.1-3.08,4.08-5.58,1.34-3.42,2.53-7,3.93-10.33a27.22,27.22,0,0,1,1.54-3.48Zm-41.49,0a2.9,2.9,0,0,1,1,.07l1.57,3.56,2.7,7.15c.71,1.83,1.3,3.67,2,5.43a9.7,9.7,0,0,0,1,2.25c.65.84,1.88.59,2.55,1.24a.83.83,0,0,1-.19.67c-1.8,0-3.66-.15-5.62-.15a16.59,16.59,0,0,1-3,0l-.15-.19,0-.41.07-.15c.71-.17,1.86-.17,2.25-.67s.12-1.25,0-1.76l-1.5-4.42-6.59.07c-.24,1.23-2.13,4.59-1.24,5.8.55.74,1.91.49,2.55,1.12a.77.77,0,0,1-.22.67l-4.34-.11a13.8,13.8,0,0,1-2.55,0l-.15-.19a.76.76,0,0,1,.19-.64c2.88-.67,3.1-3.08,4.08-5.58,1.34-3.42,2.53-7,3.93-10.33a27.21,27.21,0,0,1,1.54-3.48Zm-30.07,0a11.79,11.79,0,0,1,4.57.67l1.8.86.56-.56a2.28,2.28,0,0,1,.49-.67h.56l.19.26a7.22,7.22,0,0,1,.15,1.76,17.22,17.22,0,0,1,.22,4.57l-.19.19-.41,0c-.51-.26-.68-1.1-.94-1.61a8.4,8.4,0,0,0-1.91-2.62,8.71,8.71,0,0,0-2.17-1.42c-3.77-1.53-6.4,1.75-7.38,4.23-1.91,4.88-.12,10.07,3,12.32a5.71,5.71,0,0,0,4.79,1.16,7.33,7.33,0,0,0,3.89-2.73c.38-.52.61-1.26,1.12-1.65l.52,0,.22.19c0,1.41-1,2.31-1.76,3a9.71,9.71,0,0,1-12.62.52c-4-3.06-4.86-10.33-1.5-14.79a9.73,9.73,0,0,1,4.76-3.29l2.06-.41Zm-81.55,0a2.36,2.36,0,0,1,1.09.11l1.42,3.22,2.81,7.41c.73,1.9,1.33,3.81,2.1,5.62a9.4,9.4,0,0,0,1,2.13c.63.81,1.87.57,2.51,1.2l0,.49-.08.15a5.31,5.31,0,0,1-1.65-.08h-5a3.72,3.72,0,0,1-2.17-.15l0-.08a.66.66,0,0,1,.19-.56c.75-.13,1.85-.15,2.21-.67s.09-1.23-.07-1.76l-1.5-4.38-5.13.07c-.42.06-1.25-.16-1.46.11-.51.87-1.91,4.79-1.2,5.73.52.69,1.8.54,2.51,1a.82.82,0,0,1-.22.71l-4.38-.11a12.84,12.84,0,0,1-2.47,0l-.19-.22,0-.37c.21-.41,1.07-.37,1.46-.6a4.24,4.24,0,0,0,1.57-2c1.86-4.29,3.21-9,5-13.25a33.05,33.05,0,0,1,1.65-3.78Zm131.72,0a12.68,12.68,0,0,1,5.05.79,7.49,7.49,0,0,0,2.43,1,3.18,3.18,0,0,0,.75-.71h.49c.43.57,1,5.41.6,6h-.49c-.49-.25-1.19-2-1.57-2.58a8.6,8.6,0,0,0-3.89-3,6.57,6.57,0,0,0-5,.37c-2.77,1.43-5.36,5.87-4.34,10.52.69,3.16,2.34,5.52,5.09,6.63a6.32,6.32,0,0,0,4.19.19,3.93,3.93,0,0,0,2.66-4.79,4.59,4.59,0,0,0-.52-2c-.74-1-2.11-.33-3-.94l0-.56c.24-.46,1.61-.26,2.28-.26l7,0,.15.22a1.08,1.08,0,0,1,0,.6c-.81.51-2.18.22-2.55,1.16-.44,1.14.24,4.36-.3,5.24-.35.57-1.44.88-2.06,1.2-2.33,1.18-6.08,2.22-9.44,1.2-4.31-1.31-8.87-5.89-7.11-12.28a10.65,10.65,0,0,1,1.16-2.81,11.07,11.07,0,0,1,5.54-4.42l2-.52.94-.11ZM521.77,503l-.94,0-2.7.37V511c3.63.56,8.75,1.43,10.52-1.54a4.29,4.29,0,0,0,.41-2.88c-.69-3.08-3.54-3.65-7.3-3.63Zm-19.54,0-1.57.11c-1.86.36-3.34.9-4.16,2.28a3.88,3.88,0,0,0-.45,2.13c.68,5.24,6.3,4.27,11,3.52V503.4a36.61,36.61,0,0,0-4.83-.41Zm19.54-11.61-1.2.07-2.43.37v4.9c0,.43-.15,1.5.07,1.76a10.18,10.18,0,0,0,2.62.52c3.31.63,6.89,0,7.68-2.51a3.76,3.76,0,0,0-.22-2.47c-.92-2.14-3.44-2.68-6.51-2.66Zm-19.32,0-2.1.22c-1.87.44-4.31,1.85-3.78,4.46.84,4.1,6.74,3.34,10.48,2.43v-6.66a32.19,32.19,0,0,0-4.61-.45Zm11.38,24.34V487.86c5.53-.08,12.69-.88,16.44,1.39a6.92,6.92,0,0,1,3,8.35,7.43,7.43,0,0,1-2.7,3.29l.08,0c1,1.08,2.2,1.84,2.85,3.29a11.12,11.12,0,0,1,.75,2.58,8.37,8.37,0,0,1-.67,4.34,6.66,6.66,0,0,1-4.49,4.31c-1.42.43-3.62.22-5.39.22l-9.88,0Zm-2.47-27.86v27.86l-10.15,0c-2.13,0-4.42.13-5.92-.49-2.9-1.2-5.44-5.55-4.08-9.85a9.64,9.64,0,0,1,3.37-4.46v0a3.46,3.46,0,0,1-1.39-1.16,7,7,0,0,1,0-9c3.37-3.82,11.44-2.88,18.2-2.81Zm44.82,11.2c-.05,1.28-.28,2.69-.26,4l.94-1c1.44-1.47,3-2.89,6-2.88l-.86,2.25a39.08,39.08,0,0,1-1.2,4,11.1,11.1,0,0,1-7.68,6.1c-.45.88-.95,1.66-1.35,2.62,2.51-1.47,4.62-2.8,8.8-2.62-.6,3.14-4.71,6.73-7.68,7.64l-2.36.45c-.84.13-1.92-.21-2.4.11-.53,1.13-1.82,1.81-2.32,3h0c2.68-1,6.64-2.12,10.15-1.09a5,5,0,0,1-1.35,2.17c-1.09,1.38-4,4.14-6.63,3.78a16.6,16.6,0,0,1-3.67-.79l-1.8-.79c-.65.79-1.7,1.23-2.32,2.06v0c4.54-.05,7.59,1,9.92,3.11-.14.62-2.17,1.1-2.88,1.31-2.24.67-5.67,1-7.86,0a14,14,0,0,1-2.92-1.91l-4,1.61h.07c1.88,1.4,4.7,1.92,5.84,4l-.11.22a17.38,17.38,0,0,1-2.43.6,10.91,10.91,0,0,1-8.42-2,19.69,19.69,0,0,1-2.1-2.4c-2.45,0-4.2,2.68-5,4.49-.19.45-.86,1.82-1.65,1.2s.31-2.51.52-2.92a8.47,8.47,0,0,1,6-4.72c-.89-4.51,2.75-8.3,5.09-10a8.86,8.86,0,0,1,2.85-1.68v.26l-.26,2.7a27.63,27.63,0,0,1-1.2,5.5c-.55,1.31-1.59,1.91-2.43,2.88,1.61.08,3.4.12,4.27-.75a17.52,17.52,0,0,1,3-10.93c.41-.61,1.47-2.37,2.13-2.58l0,0c.17,2.17.82,4.78.3,7.26a16.75,16.75,0,0,1-.82,2.85l-.56,1.24a9.16,9.16,0,0,0,3.29-2.85c-.47-2.46-.82-7.77-.22-10.33a15.71,15.71,0,0,1,1.57-3.78h.15l.67,1.87,1.12,3.74a21.09,21.09,0,0,1,.26,5,6.52,6.52,0,0,0,2.25-3,8.7,8.7,0,0,1-1-2.21,27.69,27.69,0,0,1-1.91-10.52h.11c2.73,1,3.89,3.65,4.64,6.66l.41,3.15v-.07c1.85-2.08.41-3.63-.45-5.8a63.07,63.07,0,0,1-1.91-7.49l-1.12-3.33c3.4.6,4.8,3.77,6.29,6.33a10.18,10.18,0,0,1,1,2.06l.07,0c.18-.91,1.51-3.61,1-4.57-.19-.39-.88-.52-1.27-.71a16.35,16.35,0,0,1-2.85-1.68c-1.78-1.37-2.75-3.73-4-5.62l-1.72-2.62c4.27,0,6.23,2.45,7.86,5.05.52.83,1.55,2.93,2.4,3.29a16.41,16.41,0,0,0-.11-5.88c-.12-.57-.12-1.49-.52-1.76-.59-.25-1.53.2-2.32.08a7.81,7.81,0,0,1-3.07-1c-2.18-1.43-3.7-3.63-5.92-5.09a7.08,7.08,0,0,0-1.65-1v-.15c5.59-2.09,8.85,2.33,12.32,4.31a15,15,0,0,0-3.11-6.25,9.57,9.57,0,0,1-2.43.3,27.65,27.65,0,0,1-7.08-1.95l-3.29-1c.36-3.06,7.12-1.34,9.1-.79l1.87.41-.07-.07a18.74,18.74,0,0,0-3-3.67c-1.09.2-2.17.58-3.41.79-3.44.56-8.95-.48-11.49-1.39v-.11a7.26,7.26,0,0,1,1.31-1.24,12.07,12.07,0,0,1,7.15-1l3.41.41c.09-.06.09-.1.15-.19v0a20.1,20.1,0,0,0-2.88-2.4l-1.24.49a8.09,8.09,0,0,1-3.44,0,12.58,12.58,0,0,1-7-4.64,7.8,7.8,0,0,1-1.8-2.55c4.59-.19,8.62.12,11.34,2.06,1.73,1.24,2.55,3.23,4.49,4.27l0-.11a34.52,34.52,0,0,1-1.42-3.67c-1-4.32,1-7.19,2.4-9.81h.11c.69,2.2,1.06,4.48,1.87,6.55.64,1.64,1.55,2.79,1.91,4.79a13.45,13.45,0,0,1-.26,4.72c-.09.48-.39,1.46-.15,1.68a16.62,16.62,0,0,0,2.85,3.37c-.33-3.24-.89-6.68.07-9.77.27-.86.58-2.25,1.42-2.51.73,3.07,2,5.6,2.58,8.84.49,2.92-.86,5.21-1.54,7.26a18,18,0,0,0,2,3.48l.15-.11c.77-3.13.67-8.79,4-9.17a12.13,12.13,0,0,0-.22,3.33c.34,2.13,1.09,5.49.41,7.6-.53,1.63-1.65,2-2.55,3.15a10.13,10.13,0,0,0,.6,2.4l0-.07,1.12-1.68a16,16,0,0,1,3.18-3.37l.15,0,.64,3.41c.79,4.45-.85,7.75-4.87,7.83Zm-87.16,0c-5.64-.06-5.74-6.53-4.19-11.27H465l1.2,1.16a13.72,13.72,0,0,1,3.07,4l0-.07a5.85,5.85,0,0,0,.6-2.36,6.41,6.41,0,0,1-2.55-3.11c-.68-2.11.07-5.47.41-7.6a12,12,0,0,0-.22-3.33h.11c2.23.87,2.85,3,3.33,5.58.24,1.31.07,2.78.67,3.71l.11-.07c.28-.64,1.9-2.85,1.91-3.41l-.56-1.54a10.93,10.93,0,0,1-1-5.73c.52-3.22,1.78-5.8,2.58-8.84.84.27,1.15,1.64,1.42,2.51,1,3.21.41,6.44.08,9.77,1.21-.93,1.82-2.54,3-3.48-.65-2-1-5.67-.22-7.83.58-1.58,1.48-2.88,2-4.61l1.46-5.2.11,0,.82,1.31a14.84,14.84,0,0,1,1.5,3.44c1,3.5-.5,6.25-1.39,8.69l0,.11c1.95-1,2.76-3,4.49-4.27,2.74-2,6.74-2.21,11.34-2.06a7.7,7.7,0,0,1-1.8,2.55c-2,2.51-7,6.49-11.64,4.19-.76.51-2.52,1.66-2.92,2.43l.15.22c3.61-.5,8.22-.93,10.82.82a2.2,2.2,0,0,1,1,1.12,41.57,41.57,0,0,1-5.8,1.24l-2.73.19-2.13,0-2.62-.37-1.65-.49c-1,1.28-2.18,2.38-3.07,3.74a27.2,27.2,0,0,0,3.29-.82c1-.26,2-.3,3.07-.49a5.79,5.79,0,0,1,1.72-.07c1.12.19,3.1.55,2.85,1.8l-2.13.67-5.84,2a14.61,14.61,0,0,1-4.83,0l-1.42,2.13a13.84,13.84,0,0,0-1.65,4.12c3.56-2,6.59-6.38,12.32-4.31v.15a6.73,6.73,0,0,0-1.65,1c-2.21,1.46-3.74,3.66-5.92,5.09a6.33,6.33,0,0,1-3.63,1,9.12,9.12,0,0,0-1.83-.08c-.5,1.24-1.39,6.19-.52,7.64,1-.71,1.69-2.22,2.36-3.29,1.64-2.62,3.58-5.06,7.86-5.05l-1.72,2.62c-1.26,1.89-2.23,4.25-4,5.62a17.17,17.17,0,0,1-2.62,1.57c-.42.22-1.21.37-1.46.75-.37.56.77,4.33,1.09,4.68v-.07l1.39-2.73c1.34-2.27,2.91-5,6-5.58l-1.12,3.33a63.35,63.35,0,0,1-1.8,7.19l-1.61,3.86c-.13.7.85,1.76,1,2.32h0c0-3.71,2.07-9.47,5.13-9.81v.82l-.11,1.91a43.39,43.39,0,0,1-.71,4.75,30.62,30.62,0,0,1-1.27,3.59l-.86,1.8a11.68,11.68,0,0,0,2.25,2.81,21,21,0,0,1,.75-6.78l1.31-3.82h.11l.08,0a30.54,30.54,0,0,1,1.54,3.74c.66,2.79.14,7.66-.22,10.37,1.16.93,1.86,2.1,3.29,2.81l-1-2.62a17.53,17.53,0,0,1,0-8.76h0c.77.38,1.68,2,2.17,2.7,2,3,3,5.82,3,10.86a7.7,7.7,0,0,0,4.27.71l-.07-.11c-2.81-1.23-3.7-7.2-3.82-11.23a8.77,8.77,0,0,1,2.85,1.68c2.38,1.69,5.95,5.41,5.09,10,2.85.38,4.68,2.49,5.92,4.53.43.71,1.25,2.1.64,3.11a1.09,1.09,0,0,1-1.27-.41l-.71-1.65a8.29,8.29,0,0,0-2.62-2.88c-.33-.22-1.47-1.09-2.06-.67-.55.25-1.44,1.84-2.06,2.32a10.46,10.46,0,0,1-8,2c-1-.17-2.43-.1-3-.75.32-1.29,4.53-3.67,5.92-4.12a22.19,22.19,0,0,0-4-1.61,5.9,5.9,0,0,1-1.83,1.31c-2.45,1.42-5.84,1.49-8.91.56-.95-.28-2.34-.5-2.88-1.2.18-.59,1.09-1,1.57-1.35,2-1.36,4.93-1.86,8.35-1.87v0l-.52-.56-1.83-1.5-1.76.79a17,17,0,0,1-3.67.79c-2.66.37-5.55-2.41-6.63-3.78a5,5,0,0,1-1.35-2.17c3.78-1.15,7.25.28,10.18,1.09v0a14.32,14.32,0,0,0-2.55-3.15,8.79,8.79,0,0,1-4.23-.34,11.77,11.77,0,0,1-7-5.62,6.36,6.36,0,0,1-1-2.06c4.11-.24,6.37,1.14,8.8,2.62a8.48,8.48,0,0,0-1.42-2.62l-1.46-.45a11.85,11.85,0,0,1-2.55-1.39,11.34,11.34,0,0,1-3.93-5.13l-.94-3.41-.79-2c2.91,0,4.58,1.45,6,2.92l.9,1c0-1.28-.2-2.69-.26-4Z" transform="translate(-416.78 -457.31)" style="fill:#231f20;fill-rule:evenodd"/></svg>