<svg xmlns="http://www.w3.org/2000/svg" viewBox="0 0 243.96 87.14"><title>Devialet logo</title><path d="M528.14,542.81l-3-6-3,6ZM526.8,530.2l11.1,22.44H533l-2.79-5.53H520.07l-2.71,5.53h-4.88l11-22.44Z" transform="translate(-390.02 -468.43)" style="fill:#231f20"/><polygon points="92.66 61.72 87.7 61.72 80.39 76.92 73.08 61.72 68.16 61.72 80.39 87.14 92.66 61.72" style="fill:#231f20"/><polygon points="37.36 84.21 55.41 84.21 55.41 79.95 41.82 79.95 41.82 75.13 54.01 75.13 54.01 70.86 41.82 70.86 41.82 66.04 54.93 66.04 54.93 61.77 37.36 61.77 37.36 84.21" style="fill:#231f20"/><path d="M401.81,548.37h-5.29v-13.9h5.29c4.57,0,7.2,2.89,7.2,7s-2.44,6.93-7.2,6.93m0-18.17H390v2.12h2v18.21h-2v2.11h11.79c7.35,0,11.73-4.73,11.73-11.16S409,530.2,401.81,530.2" transform="translate(-390.02 -468.43)" style="fill:#231f20"/><polygon points="165.23 61.77 160.78 61.77 160.78 84.21 178.64 84.21 178.64 79.95 165.23 79.95 165.23 61.77" style="fill:#231f20"/><rect x="106.07" y="61.68" width="4.5" height="22.63" style="fill:#231f20"/><polygon points="223.61 61.77 223.61 66.04 231.56 66.04 231.56 84.21 236.02 84.21 236.02 66.04 243.96 66.04 243.96 61.77 223.61 61.77" style="fill:#231f20"/><polygon points="192.19 84.21 210.25 84.21 210.25 79.95 196.65 79.95 196.65 75.13 208.85 75.13 208.85 70.86 196.65 70.86 196.65 66.04 209.77 66.04 209.77 61.77 192.19 61.77 192.19 84.21" style="fill:#231f20"/><path d="M512,501.91a11,11,0,1,1,11-11,11,11,0,0,1-11,11m8.37-23.3c-3-2.45-5.24-3.39-5.24-6.56,0-2.63-1.6-3.61-3.13-3.61s-3.21,1-3.21,3.61c0,3.18-2.22,4.12-5.18,6.57a15.07,15.07,0,0,0-6.13,12.32,14.52,14.52,0,0,0,29,0,15.07,15.07,0,0,0-6.14-12.32" transform="translate(-390.02 -468.43)" style="fill:#231f20"/><path d="M512.39,488.19H510.3v5.49h2.09a2.56,2.56,0,0,0,2.84-2.74,2.61,2.61,0,0,0-2.84-2.75" transform="translate(-390.02 -468.43)" style="fill:#231f20"/><path d="M512.39,495.36h-4.66v-.74h.8v-7.37h-.8v-.74h4.66A4.33,4.33,0,0,1,517,491a4.26,4.26,0,0,1-4.63,4.41m-.38-14a9.61,9.61,0,1,0,9.6,9.6,9.61,9.61,0,0,0-9.6-9.6" transform="translate(-390.02 -468.43)" style="fill:#231f20"/></svg>