<svg xmlns="http://www.w3.org/2000/svg" viewBox="0 0 283.26 50.56"><title>Call of Duty logo</title><path d="M640.37,487.59c-.8,3.3-1.54,6.36-2.12,9.21l6.14,18.42,9.24-27.63Zm-242.55,1.29a26.29,26.29,0,0,0-18.87-.75,13.57,13.57,0,0,0-5.68,3.81,10.27,10.27,0,0,0-2.46,5.05,54.39,54.39,0,0,0-.41,7.84V519a32.11,32.11,0,0,0,1.34,10.75,10.32,10.32,0,0,0,5.48,5.54,24,24,0,0,0,10.5,2A20.77,20.77,0,0,0,398,534.9a11.42,11.42,0,0,0,5.39-5.57,32.54,32.54,0,0,0,1.23-10.67v-1.89H390.16v6.14a15.14,15.14,0,0,1-.51,5.07,2.07,2.07,0,0,1-2.12,1.09,2.13,2.13,0,0,1-2.16-1.07,13.82,13.82,0,0,1-.48-4.61V500.82a14.77,14.77,0,0,1,.48-4.79c.32-.74,1.07-1.11,2.27-1.11a2.12,2.12,0,0,1,2.06.91,13.42,13.42,0,0,1,.46,4.61v8.43h14.49v-4.61a28.11,28.11,0,0,0-1.24-10,10.87,10.87,0,0,0-5.54-5.37Zm60.85-1.26H444.21v48.54h23.24v-9.72h-8.78Zm26.7,0H471v48.54h23.21v-9.72h-8.8Zm-72.87-.11-7.38,48.65h13.65l4.7-38.13L426.05,519h-3l-.92,8.14H427l1.14,9.09h13.6l-8.35-48.68Zm86.09,13a3.82,3.82,0,0,0-1.63-1.32,5.66,5.66,0,0,0-2.27-.43,5.5,5.5,0,0,0-2.33.46,3.78,3.78,0,0,0-1.54,1.34,4.05,4.05,0,0,0-.71,1.9c0,.71-.11,1.89-.11,3.58v2.86a29.92,29.92,0,0,0,.11,3.61,4.39,4.39,0,0,0,.74,1.92,3.78,3.78,0,0,0,1.63,1.3,5.66,5.66,0,0,0,2.27.45,5.5,5.5,0,0,0,2.33-.46,3.7,3.7,0,0,0,1.54-1.34,4.1,4.1,0,0,0,.71-1.92c0-.69.11-1.89.11-3.56V506.1a30.35,30.35,0,0,0-.11-3.62A4,4,0,0,0,498.58,500.55Zm-3.25,10.58a8.55,8.55,0,0,1-.12,1.86.57.57,0,0,1-1.06.06,9.32,9.32,0,0,1-.17-1.75v-7.83a4.1,4.1,0,0,1,.17-1.54.57.57,0,0,1,.49-.26.48.48,0,0,1,.51.32,5.68,5.68,0,0,1,.12,1.54Zm142-9.89-.78-2.43-3.71-11.22H619.61l10.13,31.21v17.7H643.1V518.8h0l-5.76-17.59ZM500.75,515.9h3.87v-7H507v-3.18h-2.39v-3.18h2.69v-3.35h-6.55Zm42-24.67a11.5,11.5,0,0,0-5.63-2.76,78.29,78.29,0,0,0-14.2-.83H512.08v48.56h18.28a45.72,45.72,0,0,0,7.78-.49,10.91,10.91,0,0,0,4.34-1.75,6.51,6.51,0,0,0,2.46-3.44,34.37,34.37,0,0,0,.71-8.75v-17a56.69,56.69,0,0,0-.48-9.21A8.41,8.41,0,0,0,542.77,491.23Zm-11.61,29.61c0,3.24-.25,5.22-.72,6s-1.77,1.09-3.87,1.09V495.94a8,8,0,0,1,3.24.43,2,2,0,0,1,1.11,1.37,21.26,21.26,0,0,1,.25,4.24Zm54.16-23.52h8.58v38.9h14.51v-38.9H617v-9.73h-31.7Zm-17.52,26.1a16.07,16.07,0,0,1-.38,4.61,1.69,1.69,0,0,1-1.77,1,1.54,1.54,0,0,1-1.54-.89,12.7,12.7,0,0,1-.38-4.05V487.64H549.24v28.72a104.05,104.05,0,0,0,.34,10.75,9.67,9.67,0,0,0,2.23,4.87,13,13,0,0,0,5.68,3.75,24.38,24.38,0,0,0,8.75,1.44,22.52,22.52,0,0,0,7.78-1.21,12.53,12.53,0,0,0,5.31-3.58,9.75,9.75,0,0,0,2.43-4.61,49.12,49.12,0,0,0,.41-7.75V487.64h-14.4Z" transform="translate(-370.37 -486.72)"/></svg>