<svg xmlns="http://www.w3.org/2000/svg" viewBox="0 0 302.67 73.63"><title>Lenovo Yoga logo</title><path d="M432,477.72a4.43,4.43,0,0,0-6.26,0L397,506.39l-28.77-28.67A4.43,4.43,0,0,0,362,484l30.61,30.49v30a4.43,4.43,0,0,0,8.86,0V514.46L432,484a4.4,4.4,0,0,0,0-6.25" transform="translate(-360.66 -475.18)" style="fill:#231f20"/><path d="M658.91,547.58a4.45,4.45,0,0,1-4-2.45L627,489.47l-27.94,55.66a4.43,4.43,0,0,1-7.93-4L623,477.63a4.43,4.43,0,0,1,7.93,0l31.91,63.55a4.43,4.43,0,0,1-4,6.4" transform="translate(-360.66 -475.18)" style="fill:#231f20"/><path d="M470.46,484a27.36,27.36,0,1,0,27.48,27.36A27.45,27.45,0,0,0,470.46,484m0,63.56a36.19,36.19,0,1,1,36.34-36.2,36.31,36.31,0,0,1-36.34,36.2" transform="translate(-360.66 -475.18)" style="fill:#231f20"/><path d="M554.34,547.82a36.32,36.32,0,1,1,25.77-62,4.42,4.42,0,0,1-6.27,6.25,27.47,27.47,0,1,0,7.74,23.86H554.34a4.41,4.41,0,1,1,0-8.82h32a4.42,4.42,0,0,1,4.43,4.42,36.44,36.44,0,0,1-36.46,36.32" transform="translate(-360.66 -475.18)" style="fill:#231f20"/></svg>